<?xml version="1.0" standalone="no"?><!DOCTYPE svg PUBLIC "-//W3C//DTD SVG 1.1//EN" "http://www.w3.org/Graphics/SVG/1.1/DTD/svg11.dtd"><svg t="1745132386135" class="icon" viewBox="0 0 1024 1024" version="1.1" xmlns="http://www.w3.org/2000/svg" p-id="13190" xmlns:xlink="http://www.w3.org/1999/xlink" width="200" height="200"><path d="M512 192c34.6 0 68.1 6.8 99.6 20.1 30.5 12.9 57.9 31.4 81.4 54.9 23.5 23.5 42 50.9 54.9 81.4 13.3 31.5 20.1 65 20.1 99.6s-6.8 68.1-20.1 99.6C735 578.1 716.6 605.5 693 629c-23.5 23.5-50.9 42-81.4 54.9-31.5 13.3-65 20.1-99.6 20.1s-68.1-6.8-99.6-20.1C381.9 671 354.5 652.5 331 629c-23.5-23.5-42-50.9-54.9-81.4-13.3-31.5-20.1-65-20.1-99.6s6.8-68.1 20.1-99.6c12.9-30.5 31.4-57.9 54.9-81.4 23.5-23.5 50.9-42 81.4-54.9 31.5-13.4 65-20.1 99.6-20.1m0-64c-176.7 0-320 143.3-320 320s143.3 320 320 320 320-143.3 320-320-143.3-320-320-320z" fill="#D93934" p-id="13191"></path><path d="M512 576c-70.6 0-128-57.4-128-128s57.4-128 128-128 128 57.4 128 128-57.4 128-128 128z m0-192c-35.3 0-64 28.7-64 64s28.7 64 64 64 64-28.7 64-64-28.7-64-64-64z" fill="#D93934" p-id="13192"></path><path d="M878 0H146c-45.2 0-82 36.8-82 82v860c0 45.2 36.8 82 82 82h732c45.2 0 82-36.8 82-82V82c0-45.2-36.8-82-82-82z m18 942c0 9.9-8.1 18-18 18H146c-9.9 0-18-8.1-18-18V82c0-9.9 8.1-18 18-18h732c9.9 0 18 8.1 18 18v860z" fill="#454545" p-id="13193"></path><path d="M813.4 658.5c-2.5-2.5-5.2-4.8-8.1-6.8l-177.2-150c7.6-16.3 11.8-34.5 11.8-53.7 0-70.6-57.4-128-128-128s-128 57.4-128 128 57.4 128 128 128c19.4 0 37.9-4.4 54.4-12.2l149.7 177c2 2.8 4.3 5.6 6.9 8.1 25 25 65.5 25 90.5 0 25-24.9 25-65.4 0-90.4zM512 512c-35.3 0-64-28.7-64-64s28.7-64 64-64 64 28.7 64 64-28.7 64-64 64z" fill="#454545" p-id="13194"></path><path d="M256 831.8m-64 0a64 64 0 1 0 128 0 64 64 0 1 0-128 0Z" fill="#454545" p-id="13195"></path></svg>