<?xml version="1.0" standalone="no"?><!DOCTYPE svg PUBLIC "-//W3C//DTD SVG 1.1//EN" "http://www.w3.org/Graphics/SVG/1.1/DTD/svg11.dtd"><svg t="1757780620738" class="icon" viewBox="0 0 1024 1024" version="1.1" xmlns="http://www.w3.org/2000/svg" p-id="1954" xmlns:xlink="http://www.w3.org/1999/xlink" width="200" height="200"><path d="M871.716571 649.845029l-0.336457 116.004571c-0.146286 52.882286-34.903771 105.662171-104.316343 145.978514-140.010057 81.290971-367.835429 81.290971-508.767085 0-70.802286-40.8576-106.159543-94.471314-105.998629-148.041143l0.321829-115.975314c-0.146286 53.540571 35.196343 107.168914 106.013257 148.026514 140.917029 81.290971 368.7424 81.290971 508.752457 0 69.4272-40.316343 104.170057-93.096229 104.316343-145.993142z" fill="#666666" p-id="1955"></path><path d="M871.643429 649.771886l-0.292572 116.004571c-0.146286 52.955429-34.816 105.764571-104.301714 145.993143-139.995429 81.334857-367.762286 81.334857-508.781714 0-70.802286-40.813714-106.057143-94.354286-105.910858-148.041143l0.292572-115.565714c0 53.540571 35.254857 106.934857 106.057143 147.602286 3.364571 1.901714 6.729143 3.803429 10.24 5.558857 32.914286 68.169143 121.270857 117.028571 224.987428 117.028571 91.428571 0 171.008-38.034286 210.944-93.769143 22.235429-7.899429 43.154286-17.554286 62.464-28.818285 69.485714-40.228571 104.155429-93.037714 104.301715-145.993143z" fill="#333333" p-id="1956"></path><path d="M765.454629 501.525943c140.931657 81.3056 141.750857 213.109029 1.930971 294.312228-139.995429 81.290971-367.835429 81.290971-508.752457 0-140.829257-81.247086-141.399771-213.006629-1.389714-294.312228 139.834514-81.188571 367.381943-81.247086 508.2112 0z" fill="#999999" p-id="1957"></path><path d="M828.328229 367.279543v243.668114c0 257.755429-632.656457 257.755429-632.656458 0V367.279543C195.671771 192.7168 337.3056 51.2 512 51.2c174.709029 0 316.328229 141.5168 316.328229 316.079543z" fill="#F0F5FC" p-id="1958"></path><path d="M828.342857 367.294171v243.712c0 257.755429-632.685714 257.755429-632.685714 0v-175.835428c45.787429 49.298286 108.836571 79.872 178.761143 79.872 140.141714 0 253.659429-122.733714 253.659428-274.285714 0-71.68-25.453714-136.923429-67.145143-185.782858 67.876571 10.532571 128.438857 42.422857 174.811429 88.795429 57.197714 57.197714 92.598857 136.338286 92.598857 223.524571z" fill="#E1EBFA" p-id="1959"></path><path d="M478.807771 378.046171s-71.445943-8.660114-119.9104-62.025142c-35.137829-38.765714-29.988571-96.577829-24.576-125.249829 2.106514-10.883657 4.227657-17.642057 4.227658-17.642057 65.184914 6.773029 140.478171 153.146514 140.478171 153.146514l-0.146286 25.585372z" fill="#97D997" p-id="1960"></path><path d="M478.807771 378.046171s-71.445943-8.660114-119.9104-62.025142c-35.137829-38.765714-29.988571-96.577829-24.576-125.249829h0.1024c-0.073143 1.711543-2.706286 68.900571 58.631315 96.1536 43.359086 19.192686 72.352914 48.815543 85.825828 64.936229z" fill="#63C563" p-id="1961"></path><path d="M483.620571 567.266743c6.656 10.6496 10.8544 22.674286 13.019429 35.050057 3.115886 17.993143 5.061486 36.088686 6.0416 54.242743-2.223543 49.327543 89.468343 53.467429 91.691886 4.139886l-20.567772-65.726172a103.146057 103.146057 0 0 1-0.906971-59.040914c18.987886-66.618514 57.841371-109.9776 128.746057-115.902172 2.340571-0.190171 3.072-3.320686 1.024-4.490971-18.154057-10.430171-37.697829-13.765486-58.426514-10.825143-30.573714 4.315429-58.016914 21.635657-75.629715 46.972343-8.001829 11.527314-15.067429 24.663771-21.445485 38.926629a3.584 3.584 0 0 1-6.582857-0.146286c-11.1616-28.291657-11.556571-57.9584-4.564115-88.576 3.9936-17.554286 10.927543-34.318629 19.631543-50.088229 29.066971-52.604343 50.205257-104.638171 53.540572-155.413943 0.175543-2.998857-4.139886-3.657143-4.885943-0.731428a348.086857 348.086857 0 0 1-20.611657 59.2896c-10.093714 22.089143-23.990857 42.101029-38.912 61.249828-12.536686 16.091429-24.458971 36.278857-36.074058 58.499658a3.613257 3.613257 0 0 1-6.656-0.658286c-18.154057-62.917486-23.698286-128.585143-17.232457-196.856686a7.021714 7.021714 0 0 0-6.670628-7.723886h-0.029257a7.050971 7.050971 0 0 0-7.241143 5.602743c-15.403886 75.293257-15.067429 152.9856 7.753143 234.0864l30.017828 120.539429c0.877714 3.452343-3.393829 5.778286-5.880686 3.232914-34.816-35.6352-73.713371-38.326857-115.346285-18.7392-26.741029 14.321371-39.877486 37.376-40.521143 68.461714-0.058514 2.720914 3.6864 3.423086 4.622628 0.877715 21.240686-58.090057 94.983314-75.512686 132.096-16.252343z" fill="#E6B380" p-id="1962"></path><path d="M613.127314 907.088457m-25.892571 0a25.892571 25.892571 0 1 0 51.785143 0 25.892571 25.892571 0 1 0-51.785143 0Z" fill="#FFE680" p-id="1963"></path><path d="M404.8896 907.088457m-25.892571 0a25.892571 25.892571 0 1 0 51.785142 0 25.892571 25.892571 0 1 0-51.785142 0Z" fill="#FFE680" p-id="1964"></path><path d="M509.001143 914.695314m-25.892572 0a25.892571 25.892571 0 1 0 51.785143 0 25.892571 25.892571 0 1 0-51.785143 0Z" fill="#FFE680" p-id="1965"></path></svg>